<svg width="36" height="36" xmlns="http://www.w3.org/2000/svg" viewBox="0 0 256 256">
  <path d="m88.364 136.525 12.612 4q-2.9 10.546-9.668 15.688-6.724 5.098-17.095 5.098-12.832 0-21.093-8.746-8.262-8.789-8.262-23.994 0-16.084 8.306-24.96 8.305-8.922 21.84-8.922 11.822 0 19.204 6.988 4.395 4.13 6.592 11.865l-12.876 3.076q-1.142-5.01-4.79-7.91-3.603-2.9-8.789-2.9-7.163 0-11.645 5.141-4.439 5.142-4.439 16.655 0 12.217 4.395 17.403 4.394 5.185 11.426 5.185 5.185 0 8.92-3.296 3.736-3.295 5.362-10.37zm13.818-40.737h25.752q7.647 0 11.382.66 3.78.615 6.724 2.636 2.988 2.021 4.965 5.405 1.978 3.34 1.978 7.515 0 4.526-2.461 8.306-2.417 3.779-6.592 5.669 5.889 1.713 9.053 5.844 3.164 4.131 3.164 9.712 0 4.395-2.065 8.57-2.022 4.13-5.582 6.635-3.515 2.461-8.7 3.032-3.253.352-15.69.44h-21.928zm13.008 10.723v14.897h8.525q7.603 0 9.449-.22 3.34-.395 5.23-2.285 1.933-1.933 1.933-5.053 0-2.989-1.67-4.834-1.626-1.89-4.878-2.286-1.934-.22-11.118-.22zm0 25.62v17.226h12.041q7.031 0 8.92-.395 2.901-.527 4.703-2.549 1.846-2.065 1.846-5.493 0-2.9-1.407-4.922-1.406-2.021-4.086-2.944-2.637-.923-11.514-.923zm41.987-36.343h25.752q7.647 0 11.382.66 3.78.615 6.724 2.636 2.988 2.021 4.965 5.405 1.978 3.34 1.978 7.515 0 4.526-2.46 8.306-2.418 3.779-6.593 5.669 5.889 1.713 9.053 5.844 3.164 4.131 3.164 9.712 0 4.395-2.065 8.57-2.022 4.13-5.581 6.635-3.516 2.461-8.702 3.032-3.252.352-15.688.44h-21.929zm13.008 10.723v14.897h8.525q7.603 0 9.449-.22 3.34-.395 5.23-2.285 1.933-1.933 1.933-5.053 0-2.989-1.67-4.834-1.626-1.89-4.878-2.286-1.934-.22-11.118-.22zm0 25.62v17.226h12.041q7.031 0 8.921-.395 2.9-.527 4.702-2.549 1.846-2.065 1.846-5.493 0-2.9-1.406-4.922-1.407-2.021-4.087-2.944-2.637-.923-11.514-.923z" transform="matrix(1.23704 0 0 1.23704 -30.34 -30.825)"/>
  <path d="M32.848 74.218c-7.136 0-12.254 1.027-15.349 3.08-3.475 2.307-5.211 6.489-5.211 12.543v23.351c0 7.352-3.095 11.477-9.288 12.378v3.892c6.193.937 9.288 5.099 9.288 12.486v23.134c0 5.334 1.304 9.19 3.909 11.569 3.02 2.775 8.571 4.163 16.651 4.163h1.474v-3.731h-.68c-5.363 0-9.137-.775-11.328-2.325-2.492-1.73-3.737-5.026-3.737-9.891V141.84c0-6.883-3.57-11.675-10.706-14.378 7.137-2.559 10.706-7.315 10.706-14.27V90.165c0-4.289.924-7.316 2.773-9.083 2.153-2.053 6.25-3.08 12.291-3.08h.68v-3.784zm188.831 0v3.784h.68c6.041 0 10.138 1.027 12.29 3.08 1.85 1.767 2.774 4.794 2.774 9.083v23.027c0 6.955 3.57 11.711 10.706 14.27-7.137 2.702-10.706 7.496-10.706 14.377v23.028c0 4.865-1.245 8.162-3.737 9.891-2.19 1.55-5.965 2.326-11.327 2.326h-.68v3.73h1.473c8.08 0 13.632-1.388 16.65-4.163 2.607-2.379 3.91-6.235 3.91-11.569v-23.134c0-7.387 3.095-11.549 9.288-12.486v-3.892c-6.193-.9-9.288-5.026-9.288-12.378V89.841c0-6.054-1.736-10.236-5.211-12.543-3.095-2.053-8.213-3.08-15.35-3.08z" style="stroke-width:1.23703"/>
</svg>
